<svg xmlns="http://www.w3.org/2000/svg" xmlns:xlink="http://www.w3.org/1999/xlink" preserveAspectRatio="xMidYMid" width="279.44" height="236" viewBox="0 0 279.44 236">
  <defs>
    <style>
      .cls-1, .cls-11, .cls-2, .cls-6, .cls-8, .cls-9 {
        fill: #71a8e5;
      }

      .cls-1 {
        opacity: 0.2;
      }

      .cls-2, .cls-4 {
        opacity: 0.3;
      }

      .cls-10, .cls-3, .cls-5, .cls-7 {
        fill: #9ec3ed;
      }

      .cls-4 {
        fill: #4794eb;
      }

      .cls-4, .cls-5, .cls-7, .cls-8, .cls-9 {
        fill-rule: evenodd;
      }

      .cls-6 {
        opacity: 0.44;
      }

      .cls-10, .cls-11, .cls-7 {
        opacity: 0.75;
      }

      .cls-9 {
        opacity: 0.5;
      }
    </style>
  </defs>
  <g>
    <circle cx="216" cy="170.11" r="45" class="cls-1"/>
    <circle cx="216" cy="169.11" r="40.25" class="cls-2"/>
    <circle cx="51.5" cy="56.5" r="40.5" class="cls-1"/>
    <circle cx="51.518" cy="56.5" r="35.393" class="cls-2"/>
    <circle cx="51.5" cy="56.5" r="28.75" class="cls-3"/>
    <path d="M128.559,73.351 C149.085,70.516 167.938,84.401 170.669,104.366 C173.399,124.330 158.972,142.813 138.446,145.648 C117.920,148.484 99.067,134.598 96.336,114.633 C93.606,94.669 108.033,76.186 128.559,73.351 Z" class="cls-4"/>
    <path d="M129.676,81.883 C145.477,79.717 159.990,90.321 162.092,105.568 C164.194,120.814 153.088,134.929 137.287,137.094 C121.486,139.260 106.973,128.655 104.871,113.409 C102.770,98.163 113.875,84.048 129.676,81.883 Z" class="cls-5"/>
    <path d="M217.015,137.175 C234.602,137.175 248.860,151.476 248.860,169.117 C248.860,186.758 234.602,201.060 217.015,201.060 C199.427,201.060 185.169,186.758 185.169,169.117 C185.169,151.476 199.427,137.175 217.015,137.175 Z" class="cls-5"/>
    <circle cx="56.5" cy="181.5" r="54.5" class="cls-1"/>
    <circle cx="56.423" cy="180.5" r="48.767" class="cls-2"/>
    <circle cx="56.955" cy="181.031" r="40.986" class="cls-6"/>
    <path d="M73.324,139.872 C75.125,139.872 76.584,141.331 76.584,143.132 C76.584,144.933 75.125,146.392 73.324,146.392 C71.524,146.392 70.064,144.933 70.064,143.132 C70.064,141.331 71.524,139.872 73.324,139.872 Z" class="cls-5"/>
    <circle cx="39.329" cy="84.531" r="3.734" class="cls-3"/>
    <path d="M99.403,157.294 C101.983,157.294 104.075,159.378 104.075,161.949 C104.075,164.520 101.983,166.604 99.403,166.604 C96.823,166.604 94.732,164.520 94.732,161.949 C94.732,159.378 96.823,157.294 99.403,157.294 Z" class="cls-7"/>
    <path d="M105.167,203.179 C106.406,203.179 107.410,204.184 107.410,205.423 C107.410,206.662 106.406,207.667 105.167,207.667 C103.927,207.667 102.923,206.662 102.923,205.423 C102.923,204.184 103.927,203.179 105.167,203.179 Z" class="cls-8"/>
    <circle cx="72.53" cy="213.578" r="9.31" class="cls-3"/>
    <circle cx="192.735" cy="186.391" r="6.575" class="cls-3"/>
    <circle cx="198.295" cy="144.266" r="5.045" class="cls-3"/>
    <circle cx="247.345" cy="179.266" r="3.535" class="cls-3"/>
    <circle cx="21.516" cy="161.563" r="7.922" class="cls-3"/>
    <circle cx="156.155" cy="93.922" r="6.685" class="cls-3"/>
    <path d="M3.927,31.750 C6.096,31.750 7.854,33.513 7.854,35.687 C7.854,37.862 6.096,39.625 3.927,39.625 C1.758,39.625 -0.000,37.862 -0.000,35.687 C-0.000,33.513 1.758,31.750 3.927,31.750 Z" class="cls-9"/>
    <path d="M184.650,213.898 C186.606,213.898 188.192,215.488 188.192,217.449 C188.192,219.410 186.606,221.000 184.650,221.000 C182.694,221.000 181.108,219.410 181.108,217.449 C181.108,215.488 182.694,213.898 184.650,213.898 Z" class="cls-9"/>
    <circle cx="78.685" cy="50.625" r="5.875" class="cls-3"/>
    <circle cx="106" cy="116" r="6" class="cls-3"/>
    <circle cx="144.5" cy="134.5" r="4.5" class="cls-3"/>
    <circle cx="118.5" cy="66.5" r="3.5" class="cls-10"/>
    <circle cx="175" cy="186" r="2" class="cls-11"/>
    <circle cx="148" cy="171" r="2" class="cls-11"/>
    <path d="M85.618,91.229 C87.672,91.229 89.338,92.894 89.338,94.949 C89.338,97.003 87.672,98.669 85.618,98.669 C83.563,98.669 81.898,97.003 81.898,94.949 C81.898,92.894 83.563,91.229 85.618,91.229 Z" class="cls-7"/>
    <circle cx="149.67" cy="15.125" r="2.86" class="cls-10"/>
    <circle cx="59.5" cy="15.469" r="3.72" class="cls-10"/>
    <circle cx="252.88" cy="131.203" r="2" class="cls-11"/>
    <circle cx="162" cy="159" r="2" class="cls-11"/>
    <circle cx="25.313" cy="134.422" r="1.875" class="cls-11"/>
    <circle cx="61" cy="96" r="2" class="cls-11"/>
    <circle cx="13.125" cy="69.281" r="2.125" class="cls-11"/>
    <circle cx="163" cy="54" r="2" class="cls-11"/>
    <circle cx="270.375" cy="94.984" r="4.435" class="cls-3"/>
    <g>
      <circle cx="225" cy="52" r="52" class="cls-1"/>
      <circle cx="224.985" cy="51.984" r="46.515" class="cls-2"/>
      <circle cx="244.535" cy="18.203" r="3.125" class="cls-3"/>
      <path d="M244.534,77.323 C248.217,77.323 251.203,80.309 251.203,83.992 C251.203,87.675 248.217,90.661 244.534,90.661 C240.850,90.661 237.865,87.675 237.865,83.992 C237.865,80.309 240.850,77.323 244.534,77.323 Z" class="cls-5"/>
      <path d="M189.453,28.437 C193.136,28.437 196.122,31.423 196.122,35.107 C196.122,38.790 193.136,41.776 189.453,41.776 C185.770,41.776 182.784,38.790 182.784,35.107 C182.784,31.423 185.770,28.437 189.453,28.437 Z" class="cls-5"/>
      <circle cx="191.67" cy="87.125" r="2.86" class="cls-10"/>
      <circle cx="277.8" cy="22.328" r="1.64" class="cls-10"/>
      <circle cx="224.565" cy="51.563" r="39.095" class="cls-3"/>
    </g>
  </g>
</svg>
