<svg xmlns="http://www.w3.org/2000/svg" xmlns:xlink="http://www.w3.org/1999/xlink" preserveAspectRatio="xMidYMid" width="28" height="28" viewBox="0 0 28 28">
  <defs>
    <style>
      .cls-1 {
        fill: #a0a0a0;
        opacity: 0.75;
      }

      .cls-2 {
        fill: #fff;
        opacity: 0.95;
        fill-rule: evenodd;
      }
    </style>
  </defs>
  <g>
    <circle cx="14" cy="14" r="14" class="cls-1"/>
    <path d="M18.670,13.749 C18.667,13.751 18.662,13.751 18.658,13.753 C18.651,13.858 18.621,13.963 18.536,14.055 L12.333,20.765 C12.097,21.020 11.637,21.079 11.305,20.895 C10.974,20.711 10.897,20.355 11.133,20.099 L17.335,13.390 C17.351,13.373 17.374,13.364 17.391,13.349 L11.382,6.899 C11.144,6.643 11.218,6.287 11.548,6.103 C11.878,5.920 12.339,5.979 12.577,6.235 L18.836,12.954 C19.075,13.210 19.000,13.566 18.670,13.749 Z" class="cls-2"/>
  </g>
</svg>
